# xmcd
#
# Track frame offsets: 
#        150
#        14333
#        26452
#        49485
#        63135
#        73008
#        94745
#        108787
#        129557
#        146229
#        161740
#        173559
#
# Disc length: 2541 seconds
#
# Revision: 0
# Processed by: cddbd v1.5.2PL0 Copyright (c) Steve Scherf et al.
# Submitted via: ExactAudioCopyFreeDBPlugin 1.0
#
DISCID=a109eb0c
DTITLE=Big Joe and The Dynaflows - All Night Long
DYEAR=2000
DGENRE=Blues
TTITLE0=All Night Long
TTITLE1=Down In Louisiana
TTITLE2=Move It or Lose It
TTITLE3=It Really Breaks My Heart
TTITLE4=My Baby's Tops
TTITLE5=The Church of Your Love
TTITLE6=Mr Nick
TTITLE7=Ham Hocks
TTITLE8=You Were Always There
TTITLE9=One More Time
TTITLE10=Honey Bee
TTITLE11=Third Class Citizen
EXTD=
EXTT0=
EXTT1=
EXTT2=
EXTT3=
EXTT4=
EXTT5=
EXTT6=
EXTT7=
EXTT8=
EXTT9=
EXTT10=
EXTT11=
PLAYORDER=
